<svg width="214" height="57" viewBox="0 0 214 57" fill="none" xmlns="http://www.w3.org/2000/svg">
<path d="M10.24 20.248C9.248 20.2907 8.432 20.376 7.792 20.504C7.152 20.632 6.64533 20.792 6.272 20.984C5.89867 21.176 5.63733 21.3947 5.488 21.64C5.34933 21.8853 5.28 22.152 5.28 22.44C5.28 23.0053 5.43467 23.4053 5.744 23.64C6.05333 23.864 6.50667 23.976 7.104 23.976C7.744 23.976 8.304 23.864 8.784 23.64C9.264 23.416 9.74933 23.0533 10.24 22.552V20.248ZM1.312 12.712C2.31467 11.8267 3.424 11.1707 4.64 10.744C5.86667 10.3067 7.17867 10.088 8.576 10.088C9.57867 10.088 10.48 10.2533 11.28 10.584C12.0907 10.904 12.7733 11.3573 13.328 11.944C13.8933 12.52 14.3253 13.208 14.624 14.008C14.9227 14.808 15.072 15.6827 15.072 16.632V27H12.8C12.3307 27 11.9733 26.936 11.728 26.808C11.4933 26.68 11.296 26.4133 11.136 26.008L10.784 25.096C10.368 25.448 9.968 25.7573 9.584 26.024C9.2 26.2907 8.8 26.52 8.384 26.712C7.97867 26.8933 7.54133 27.0267 7.072 27.112C6.61333 27.208 6.10133 27.256 5.536 27.256C4.77867 27.256 4.09067 27.16 3.472 26.968C2.85333 26.7653 2.32533 26.472 1.888 26.088C1.46133 25.704 1.13067 25.2293 0.896 24.664C0.661333 24.088 0.544 23.4267 0.544 22.68C0.544 22.0827 0.693333 21.48 0.992 20.872C1.29067 20.2533 1.808 19.6933 2.544 19.192C3.28 18.68 4.272 18.2533 5.52 17.912C6.768 17.5707 8.34133 17.3787 10.24 17.336V16.632C10.24 15.6613 10.0373 14.9627 9.632 14.536C9.23733 14.0987 8.672 13.88 7.936 13.88C7.34933 13.88 6.86933 13.944 6.496 14.072C6.12267 14.2 5.78667 14.344 5.488 14.504C5.2 14.664 4.91733 14.808 4.64 14.936C4.36267 15.064 4.032 15.128 3.648 15.128C3.30667 15.128 3.01867 15.0427 2.784 14.872C2.54933 14.7013 2.35733 14.4987 2.208 14.264L1.312 12.712ZM32.9265 10.408V27H29.8545C29.2358 27 28.8305 26.7227 28.6385 26.168L28.3505 25.208C28.0305 25.5173 27.6998 25.8 27.3585 26.056C27.0172 26.3013 26.6492 26.5147 26.2545 26.696C25.8705 26.8667 25.4492 27 24.9905 27.096C24.5425 27.2027 24.0518 27.256 23.5185 27.256C22.6118 27.256 21.8065 27.1013 21.1025 26.792C20.4092 26.472 19.8225 26.0293 19.3425 25.464C18.8625 24.8987 18.4998 24.232 18.2545 23.464C18.0092 22.696 17.8865 21.8533 17.8865 20.936V10.408H22.8465V20.936C22.8465 21.7573 23.0332 22.392 23.4065 22.84C23.7798 23.288 24.3292 23.512 25.0545 23.512C25.5985 23.512 26.1052 23.4 26.5745 23.176C27.0545 22.9413 27.5185 22.6267 27.9665 22.232V10.408H32.9265ZM42.0365 27.256C41.2472 27.256 40.5485 27.144 39.9405 26.92C39.3432 26.6853 38.8365 26.36 38.4205 25.944C38.0152 25.5173 37.7058 25.0053 37.4925 24.408C37.2792 23.8107 37.1725 23.144 37.1725 22.408V13.832H35.7645C35.5085 13.832 35.2898 13.752 35.1085 13.592C34.9272 13.4213 34.8365 13.176 34.8365 12.856V10.92L37.4765 10.408L38.4525 6.36C38.5805 5.848 38.9432 5.592 39.5405 5.592H42.1325V10.44H46.2445V13.832H42.1325V22.072C42.1325 22.456 42.2232 22.776 42.4045 23.032C42.5965 23.2773 42.8685 23.4 43.2205 23.4C43.4018 23.4 43.5512 23.384 43.6685 23.352C43.7965 23.3093 43.9032 23.2667 43.9885 23.224C44.0845 23.1707 44.1698 23.128 44.2445 23.096C44.3298 23.0533 44.4258 23.032 44.5325 23.032C44.6818 23.032 44.7992 23.0693 44.8845 23.144C44.9805 23.208 45.0765 23.3147 45.1725 23.464L46.6765 25.816C46.0365 26.296 45.3165 26.6587 44.5165 26.904C43.7165 27.1387 42.8898 27.256 42.0365 27.256ZM53.1457 11.864C53.7431 11.352 54.3884 10.9413 55.0817 10.632C55.7857 10.312 56.6231 10.152 57.5937 10.152C58.5004 10.152 59.3004 10.312 59.9937 10.632C60.6977 10.9413 61.2897 11.3787 61.7697 11.944C62.2497 12.4987 62.6124 13.1653 62.8577 13.944C63.1031 14.712 63.2257 15.5493 63.2257 16.456V27H58.2657V16.456C58.2657 15.6453 58.0791 15.016 57.7057 14.568C57.3324 14.1093 56.7831 13.88 56.0577 13.88C55.5137 13.88 55.0017 13.9973 54.5217 14.232C54.0524 14.456 53.5937 14.7653 53.1457 15.16V27H48.1857V3.048H53.1457V11.864ZM76.5598 16.712C76.5598 16.3173 76.5064 15.9333 76.3998 15.56C76.3038 15.1867 76.1384 14.856 75.9038 14.568C75.6798 14.2693 75.3811 14.0293 75.0078 13.848C74.6344 13.6667 74.1811 13.576 73.6478 13.576C72.7091 13.576 71.9731 13.848 71.4398 14.392C70.9064 14.9253 70.5544 15.6987 70.3838 16.712H76.5598ZM70.3198 19.592C70.4798 20.9787 70.9011 21.9867 71.5838 22.616C72.2664 23.2347 73.1464 23.544 74.2238 23.544C74.7998 23.544 75.2958 23.4747 75.7118 23.336C76.1278 23.1973 76.4958 23.0427 76.8158 22.872C77.1464 22.7013 77.4451 22.5467 77.7118 22.408C77.9891 22.2693 78.2771 22.2 78.5758 22.2C78.9704 22.2 79.2691 22.344 79.4718 22.632L80.9118 24.408C80.3998 24.9947 79.8451 25.4747 79.2478 25.848C78.6611 26.2107 78.0531 26.4987 77.4238 26.712C76.8051 26.9147 76.1811 27.0533 75.5518 27.128C74.9331 27.2133 74.3411 27.256 73.7758 27.256C72.6131 27.256 71.5198 27.0693 70.4958 26.696C69.4824 26.312 68.5918 25.7467 67.8238 25C67.0664 24.2533 66.4638 23.3253 66.0158 22.216C65.5784 21.1067 65.3598 19.816 65.3598 18.344C65.3598 17.2347 65.5464 16.184 65.9198 15.192C66.3038 14.2 66.8478 13.3307 67.5518 12.584C68.2664 11.8373 69.1251 11.2453 70.1278 10.808C71.1411 10.3707 72.2824 10.152 73.5518 10.152C74.6504 10.152 75.6531 10.3227 76.5598 10.664C77.4771 11.0053 78.2611 11.5013 78.9118 12.152C79.5731 12.8027 80.0851 13.6027 80.4478 14.552C80.8211 15.4907 81.0078 16.5573 81.0078 17.752C81.0078 18.1253 80.9918 18.4293 80.9598 18.664C80.9278 18.8987 80.8691 19.0853 80.7838 19.224C80.6984 19.3627 80.5811 19.4587 80.4318 19.512C80.2931 19.5653 80.1118 19.592 79.8878 19.592H70.3198ZM87.8697 12.2C88.1897 11.9013 88.5204 11.624 88.8617 11.368C89.2031 11.112 89.5657 10.8987 89.9497 10.728C90.3444 10.5467 90.7657 10.408 91.2137 10.312C91.6724 10.2053 92.1684 10.152 92.7017 10.152C93.6084 10.152 94.4084 10.312 95.1017 10.632C95.8057 10.9413 96.3977 11.3787 96.8777 11.944C97.3577 12.4987 97.7204 13.1653 97.9657 13.944C98.2111 14.712 98.3337 15.5493 98.3337 16.456V27H93.3737V16.456C93.3737 15.6453 93.1871 15.016 92.8137 14.568C92.4404 14.1093 91.8911 13.88 91.1657 13.88C90.6217 13.88 90.1097 13.9973 89.6297 14.232C89.1604 14.456 88.7017 14.7653 88.2537 15.16V27H83.2937V10.408H86.3657C86.9844 10.408 87.3897 10.6853 87.5817 11.24L87.8697 12.2ZM119.065 27H114.105V13.832H107.161V22.072C107.161 22.456 107.252 22.776 107.433 23.032C107.625 23.2773 107.897 23.4 108.249 23.4C108.43 23.4 108.58 23.384 108.697 23.352C108.825 23.3093 108.932 23.2667 109.017 23.224C109.113 23.1707 109.198 23.128 109.273 23.096C109.358 23.0533 109.454 23.032 109.561 23.032C109.71 23.032 109.828 23.0693 109.913 23.144C110.009 23.208 110.105 23.3147 110.201 23.464L111.705 25.816C111.065 26.296 110.345 26.6587 109.545 26.904C108.745 27.1387 107.918 27.256 107.065 27.256C106.276 27.256 105.577 27.144 104.969 26.92C104.372 26.6853 103.865 26.36 103.449 25.944C103.044 25.5173 102.734 25.0053 102.521 24.408C102.308 23.8107 102.201 23.144 102.201 22.408V13.832H100.793C100.537 13.832 100.318 13.752 100.137 13.592C99.9557 13.4213 99.865 13.176 99.865 12.856V10.92L102.505 10.392L103.481 6.36C103.609 5.848 103.972 5.592 104.569 5.592H107.161V10.44H119.065V27ZM119.753 5.848C119.753 6.24267 119.673 6.616 119.513 6.968C119.353 7.32 119.134 7.62933 118.857 7.896C118.58 8.152 118.254 8.35467 117.881 8.504C117.518 8.65333 117.129 8.728 116.713 8.728C116.308 8.728 115.929 8.65333 115.577 8.504C115.225 8.35467 114.91 8.152 114.633 7.896C114.366 7.62933 114.153 7.32 113.993 6.968C113.844 6.616 113.769 6.24267 113.769 5.848C113.769 5.45333 113.844 5.08 113.993 4.728C114.153 4.36533 114.366 4.056 114.633 3.8C114.91 3.53333 115.225 3.32533 115.577 3.176C115.929 3.016 116.308 2.936 116.713 2.936C117.129 2.936 117.518 3.016 117.881 3.176C118.254 3.32533 118.58 3.53333 118.857 3.8C119.134 4.056 119.353 4.36533 119.513 4.728C119.673 5.08 119.753 5.45333 119.753 5.848ZM132.883 14.04C132.755 14.2427 132.617 14.3867 132.467 14.472C132.329 14.5573 132.147 14.6 131.923 14.6C131.689 14.6 131.454 14.552 131.219 14.456C130.985 14.3493 130.729 14.2373 130.451 14.12C130.185 14.0027 129.881 13.896 129.539 13.8C129.198 13.6933 128.809 13.64 128.371 13.64C127.742 13.64 127.257 13.7627 126.915 14.008C126.585 14.2427 126.419 14.5733 126.419 15C126.419 15.3093 126.526 15.5653 126.739 15.768C126.963 15.9707 127.257 16.152 127.619 16.312C127.982 16.4613 128.393 16.6053 128.851 16.744C129.31 16.8827 129.779 17.0373 130.259 17.208C130.739 17.3787 131.209 17.5813 131.667 17.816C132.126 18.04 132.537 18.3227 132.899 18.664C133.262 18.9947 133.55 19.4 133.763 19.88C133.987 20.36 134.099 20.936 134.099 21.608C134.099 22.4293 133.95 23.1867 133.651 23.88C133.353 24.5733 132.905 25.1707 132.307 25.672C131.721 26.1733 130.99 26.5627 130.115 26.84C129.251 27.1173 128.254 27.256 127.123 27.256C126.558 27.256 125.993 27.2027 125.427 27.096C124.862 26.9893 124.313 26.8453 123.779 26.664C123.257 26.4827 122.771 26.2693 122.323 26.024C121.875 25.768 121.491 25.496 121.171 25.208L122.323 23.384C122.451 23.1707 122.611 23.0053 122.803 22.888C123.006 22.76 123.262 22.696 123.571 22.696C123.859 22.696 124.115 22.76 124.339 22.888C124.574 23.016 124.825 23.1547 125.091 23.304C125.358 23.4533 125.667 23.592 126.019 23.72C126.382 23.848 126.835 23.912 127.379 23.912C127.763 23.912 128.089 23.8747 128.355 23.8C128.622 23.7147 128.835 23.6027 128.995 23.464C129.155 23.3253 129.273 23.1707 129.347 23C129.422 22.8293 129.459 22.6533 129.459 22.472C129.459 22.1413 129.347 21.8693 129.123 21.656C128.899 21.4427 128.606 21.2613 128.243 21.112C127.881 20.952 127.465 20.808 126.995 20.68C126.537 20.5413 126.067 20.3867 125.587 20.216C125.107 20.0453 124.633 19.8427 124.163 19.608C123.705 19.3627 123.294 19.0587 122.931 18.696C122.569 18.3227 122.275 17.8693 122.051 17.336C121.827 16.8027 121.715 16.1573 121.715 15.4C121.715 14.696 121.849 14.0293 122.115 13.4C122.393 12.76 122.803 12.2 123.347 11.72C123.891 11.24 124.574 10.8613 125.395 10.584C126.217 10.296 127.177 10.152 128.275 10.152C128.873 10.152 129.449 10.2053 130.003 10.312C130.569 10.4187 131.097 10.568 131.587 10.76C132.078 10.952 132.526 11.1813 132.931 11.448C133.337 11.704 133.694 11.9867 134.003 12.296L132.883 14.04ZM148.585 14.344C148.436 14.5253 148.292 14.6693 148.153 14.776C148.015 14.8827 147.817 14.936 147.561 14.936C147.316 14.936 147.092 14.8773 146.889 14.76C146.697 14.6427 146.479 14.5147 146.233 14.376C145.988 14.2267 145.7 14.0933 145.369 13.976C145.039 13.8587 144.628 13.8 144.137 13.8C143.529 13.8 143.001 13.912 142.553 14.136C142.116 14.36 141.753 14.68 141.465 15.096C141.177 15.512 140.964 16.024 140.825 16.632C140.687 17.2293 140.617 17.9067 140.617 18.664C140.617 20.2533 140.921 21.4747 141.529 22.328C142.148 23.1813 142.996 23.608 144.073 23.608C144.649 23.608 145.103 23.5387 145.433 23.4C145.775 23.2507 146.063 23.0907 146.297 22.92C146.532 22.7387 146.745 22.5733 146.937 22.424C147.14 22.2747 147.391 22.2 147.689 22.2C148.084 22.2 148.383 22.344 148.585 22.632L150.025 24.408C149.513 24.9947 148.975 25.4747 148.409 25.848C147.844 26.2107 147.263 26.4987 146.665 26.712C146.079 26.9147 145.487 27.0533 144.889 27.128C144.292 27.2133 143.711 27.256 143.145 27.256C142.132 27.256 141.161 27.064 140.233 26.68C139.316 26.296 138.505 25.7413 137.801 25.016C137.108 24.28 136.553 23.3787 136.137 22.312C135.732 21.2453 135.529 20.0293 135.529 18.664C135.529 17.4693 135.705 16.3547 136.057 15.32C136.42 14.2747 136.948 13.3733 137.641 12.616C138.345 11.848 139.209 11.2453 140.233 10.808C141.268 10.3707 142.463 10.152 143.817 10.152C145.119 10.152 146.26 10.36 147.241 10.776C148.223 11.192 149.108 11.8 149.897 12.6L148.585 14.344ZM156.72 11.864C157.317 11.352 157.962 10.9413 158.656 10.632C159.36 10.312 160.197 10.152 161.168 10.152C162.074 10.152 162.874 10.312 163.568 10.632C164.272 10.9413 164.864 11.3787 165.344 11.944C165.824 12.4987 166.186 13.1653 166.432 13.944C166.677 14.712 166.8 15.5493 166.8 16.456V27H161.84V16.456C161.84 15.6453 161.653 15.016 161.28 14.568C160.906 14.1093 160.357 13.88 159.632 13.88C159.088 13.88 158.576 13.9973 158.096 14.232C157.626 14.456 157.168 14.7653 156.72 15.16V27H151.76V3.048H156.72V11.864ZM180.134 16.712C180.134 16.3173 180.08 15.9333 179.974 15.56C179.878 15.1867 179.712 14.856 179.478 14.568C179.254 14.2693 178.955 14.0293 178.582 13.848C178.208 13.6667 177.755 13.576 177.222 13.576C176.283 13.576 175.547 13.848 175.014 14.392C174.48 14.9253 174.128 15.6987 173.958 16.712H180.134ZM173.894 19.592C174.054 20.9787 174.475 21.9867 175.158 22.616C175.84 23.2347 176.72 23.544 177.798 23.544C178.374 23.544 178.87 23.4747 179.286 23.336C179.702 23.1973 180.07 23.0427 180.39 22.872C180.72 22.7013 181.019 22.5467 181.286 22.408C181.563 22.2693 181.851 22.2 182.15 22.2C182.544 22.2 182.843 22.344 183.046 22.632L184.486 24.408C183.974 24.9947 183.419 25.4747 182.822 25.848C182.235 26.2107 181.627 26.4987 180.998 26.712C180.379 26.9147 179.755 27.0533 179.126 27.128C178.507 27.2133 177.915 27.256 177.35 27.256C176.187 27.256 175.094 27.0693 174.07 26.696C173.056 26.312 172.166 25.7467 171.398 25C170.64 24.2533 170.038 23.3253 169.59 22.216C169.152 21.1067 168.934 19.816 168.934 18.344C168.934 17.2347 169.12 16.184 169.494 15.192C169.878 14.2 170.422 13.3307 171.126 12.584C171.84 11.8373 172.699 11.2453 173.702 10.808C174.715 10.3707 175.856 10.152 177.126 10.152C178.224 10.152 179.227 10.3227 180.134 10.664C181.051 11.0053 181.835 11.5013 182.486 12.152C183.147 12.8027 183.659 13.6027 184.022 14.552C184.395 15.4907 184.582 16.5573 184.582 17.752C184.582 18.1253 184.566 18.4293 184.534 18.664C184.502 18.8987 184.443 19.0853 184.358 19.224C184.272 19.3627 184.155 19.4587 184.006 19.512C183.867 19.5653 183.686 19.592 183.462 19.592H173.894Z" fill="#F9F3E5"/>
<path d="M28.464 30.688V54H23.696V40.592C23.696 40.2827 23.7013 39.9467 23.712 39.584C23.7333 39.2213 23.7653 38.8533 23.808 38.48L17.616 50.464C17.424 50.8373 17.1627 51.12 16.832 51.312C16.512 51.504 16.144 51.6 15.728 51.6H14.992C14.576 51.6 14.2027 51.504 13.872 51.312C13.552 51.12 13.296 50.8373 13.104 50.464L6.912 38.448C6.944 38.832 6.97067 39.2107 6.992 39.584C7.01333 39.9467 7.024 40.2827 7.024 40.592V54H2.256V30.688H6.384C6.61867 30.688 6.82133 30.6933 6.992 30.704C7.17333 30.7147 7.33333 30.7467 7.472 30.8C7.61067 30.8533 7.73333 30.9387 7.84 31.056C7.95733 31.1627 8.06933 31.3173 8.176 31.52L14.176 43.344C14.3893 43.7493 14.592 44.1707 14.784 44.608C14.9867 45.0453 15.1787 45.4933 15.36 45.952C15.5413 45.4827 15.728 45.024 15.92 44.576C16.1227 44.128 16.336 43.7013 16.56 43.296L22.544 31.52C22.6507 31.3173 22.7573 31.1627 22.864 31.056C22.9813 30.9387 23.1093 30.8533 23.248 30.8C23.3867 30.7467 23.5413 30.7147 23.712 30.704C23.8933 30.6933 24.1013 30.688 24.336 30.688H28.464ZM39.3508 37.152C40.6094 37.152 41.7561 37.3493 42.7908 37.744C43.8254 38.1387 44.7108 38.704 45.4468 39.44C46.1934 40.176 46.7694 41.072 47.1748 42.128C47.5908 43.1733 47.7988 44.352 47.7988 45.664C47.7988 46.9867 47.5908 48.1813 47.1748 49.248C46.7694 50.304 46.1934 51.2053 45.4468 51.952C44.7108 52.688 43.8254 53.2587 42.7908 53.664C41.7561 54.0587 40.6094 54.256 39.3508 54.256C38.0814 54.256 36.9241 54.0587 35.8788 53.664C34.8441 53.2587 33.9481 52.688 33.1908 51.952C32.4441 51.2053 31.8628 50.304 31.4468 49.248C31.0414 48.1813 30.8388 46.9867 30.8388 45.664C30.8388 44.352 31.0414 43.1733 31.4468 42.128C31.8628 41.072 32.4441 40.176 33.1908 39.44C33.9481 38.704 34.8441 38.1387 35.8788 37.744C36.9241 37.3493 38.0814 37.152 39.3508 37.152ZM39.3508 50.576C40.4921 50.576 41.3294 50.176 41.8628 49.376C42.4068 48.5653 42.6788 47.3387 42.6788 45.696C42.6788 44.0533 42.4068 42.832 41.8628 42.032C41.3294 41.232 40.4921 40.832 39.3508 40.832C38.1774 40.832 37.3188 41.232 36.7748 42.032C36.2308 42.832 35.9588 44.0533 35.9588 45.696C35.9588 47.3387 36.2308 48.5653 36.7748 49.376C37.3188 50.176 38.1774 50.576 39.3508 50.576ZM50.1005 54V37.408H53.1725C53.7912 37.408 54.1965 37.6853 54.3885 38.24L54.6605 39.136C54.9378 38.848 55.2258 38.5867 55.5245 38.352C55.8232 38.1067 56.1432 37.8987 56.4845 37.728C56.8365 37.5467 57.2098 37.408 57.6045 37.312C58.0098 37.2053 58.4525 37.152 58.9325 37.152C59.9352 37.152 60.7618 37.4133 61.4125 37.936C62.0738 38.448 62.5752 39.136 62.9165 40C63.1938 39.488 63.5298 39.0507 63.9245 38.688C64.3298 38.3253 64.7618 38.032 65.2205 37.808C65.6898 37.584 66.1805 37.4187 66.6925 37.312C67.2152 37.2053 67.7325 37.152 68.2445 37.152C69.1938 37.152 70.0365 37.296 70.7725 37.584C71.5085 37.8613 72.1218 38.272 72.6125 38.816C73.1138 39.3493 73.4925 40.0107 73.7485 40.8C74.0045 41.5787 74.1325 42.464 74.1325 43.456V54H69.1725V43.456C69.1725 41.7387 68.4365 40.88 66.9645 40.88C66.2925 40.88 65.7325 41.104 65.2845 41.552C64.8472 41.9893 64.6285 42.624 64.6285 43.456V54H59.6685V43.456C59.6685 42.5067 59.4818 41.84 59.1085 41.456C58.7352 41.072 58.1858 40.88 57.4605 40.88C57.0125 40.88 56.5858 40.9813 56.1805 41.184C55.7858 41.3867 55.4125 41.6587 55.0605 42V54H50.1005ZM87.4433 43.712C87.4433 43.3173 87.3899 42.9333 87.2833 42.56C87.1873 42.1867 87.0219 41.856 86.7873 41.568C86.5633 41.2693 86.2646 41.0293 85.8913 40.848C85.5179 40.6667 85.0646 40.576 84.5313 40.576C83.5926 40.576 82.8566 40.848 82.3233 41.392C81.7899 41.9253 81.4379 42.6987 81.2673 43.712H87.4433ZM81.2033 46.592C81.3633 47.9787 81.7846 48.9867 82.4673 49.616C83.1499 50.2347 84.0299 50.544 85.1073 50.544C85.6833 50.544 86.1793 50.4747 86.5953 50.336C87.0113 50.1973 87.3793 50.0427 87.6993 49.872C88.0299 49.7013 88.3286 49.5467 88.5953 49.408C88.8726 49.2693 89.1606 49.2 89.4593 49.2C89.8539 49.2 90.1526 49.344 90.3553 49.632L91.7953 51.408C91.2833 51.9947 90.7286 52.4747 90.1313 52.848C89.5446 53.2107 88.9366 53.4987 88.3073 53.712C87.6886 53.9147 87.0646 54.0533 86.4353 54.128C85.8166 54.2133 85.2246 54.256 84.6593 54.256C83.4966 54.256 82.4033 54.0693 81.3793 53.696C80.3659 53.312 79.4753 52.7467 78.7073 52C77.9499 51.2533 77.3473 50.3253 76.8993 49.216C76.4619 48.1067 76.2433 46.816 76.2433 45.344C76.2433 44.2347 76.4299 43.184 76.8033 42.192C77.1873 41.2 77.7313 40.3307 78.4353 39.584C79.1499 38.8373 80.0086 38.2453 81.0113 37.808C82.0246 37.3707 83.1659 37.152 84.4353 37.152C85.5339 37.152 86.5366 37.3227 87.4433 37.664C88.3606 38.0053 89.1446 38.5013 89.7953 39.152C90.4566 39.8027 90.9686 40.6027 91.3313 41.552C91.7046 42.4907 91.8913 43.5573 91.8913 44.752C91.8913 45.1253 91.8753 45.4293 91.8433 45.664C91.8113 45.8987 91.7526 46.0853 91.6673 46.224C91.5819 46.3627 91.4646 46.4587 91.3153 46.512C91.1766 46.5653 90.9953 46.592 90.7713 46.592H81.2033ZM98.7533 39.2C99.0733 38.9013 99.4039 38.624 99.7453 38.368C100.087 38.112 100.449 37.8987 100.833 37.728C101.228 37.5467 101.649 37.408 102.097 37.312C102.556 37.2053 103.052 37.152 103.585 37.152C104.492 37.152 105.292 37.312 105.985 37.632C106.689 37.9413 107.281 38.3787 107.761 38.944C108.241 39.4987 108.604 40.1653 108.849 40.944C109.095 41.712 109.217 42.5493 109.217 43.456V54H104.257V43.456C104.257 42.6453 104.071 42.016 103.697 41.568C103.324 41.1093 102.775 40.88 102.049 40.88C101.505 40.88 100.993 40.9973 100.513 41.232C100.044 41.456 99.5853 41.7653 99.1373 42.16V54H94.1773V37.408H97.2493C97.8679 37.408 98.2733 37.6853 98.4653 38.24L98.7533 39.2ZM117.948 54.256C117.159 54.256 116.46 54.144 115.852 53.92C115.255 53.6853 114.748 53.36 114.332 52.944C113.927 52.5173 113.618 52.0053 113.404 51.408C113.191 50.8107 113.084 50.144 113.084 49.408V40.832H111.676C111.42 40.832 111.202 40.752 111.02 40.592C110.839 40.4213 110.748 40.176 110.748 39.856V37.92L113.388 37.408L114.364 33.36C114.492 32.848 114.855 32.592 115.452 32.592H118.044V37.44H122.156V40.832H118.044V49.072C118.044 49.456 118.135 49.776 118.316 50.032C118.508 50.2773 118.78 50.4 119.132 50.4C119.314 50.4 119.463 50.384 119.58 50.352C119.708 50.3093 119.815 50.2667 119.9 50.224C119.996 50.1707 120.082 50.128 120.156 50.096C120.242 50.0533 120.338 50.032 120.444 50.032C120.594 50.032 120.711 50.0693 120.796 50.144C120.892 50.208 120.988 50.3147 121.084 50.464L122.588 52.816C121.948 53.296 121.228 53.6587 120.428 53.904C119.628 54.1387 118.802 54.256 117.948 54.256ZM134.261 43.712C134.261 43.3173 134.208 42.9333 134.101 42.56C134.005 42.1867 133.84 41.856 133.605 41.568C133.381 41.2693 133.083 41.0293 132.709 40.848C132.336 40.6667 131.883 40.576 131.349 40.576C130.411 40.576 129.675 40.848 129.141 41.392C128.608 41.9253 128.256 42.6987 128.085 43.712H134.261ZM128.021 46.592C128.181 47.9787 128.603 48.9867 129.285 49.616C129.968 50.2347 130.848 50.544 131.925 50.544C132.501 50.544 132.997 50.4747 133.413 50.336C133.829 50.1973 134.197 50.0427 134.517 49.872C134.848 49.7013 135.147 49.5467 135.413 49.408C135.691 49.2693 135.979 49.2 136.277 49.2C136.672 49.2 136.971 49.344 137.173 49.632L138.613 51.408C138.101 51.9947 137.547 52.4747 136.949 52.848C136.363 53.2107 135.755 53.4987 135.125 53.712C134.507 53.9147 133.883 54.0533 133.253 54.128C132.635 54.2133 132.043 54.256 131.477 54.256C130.315 54.256 129.221 54.0693 128.197 53.696C127.184 53.312 126.293 52.7467 125.525 52C124.768 51.2533 124.165 50.3253 123.717 49.216C123.28 48.1067 123.061 46.816 123.061 45.344C123.061 44.2347 123.248 43.184 123.621 42.192C124.005 41.2 124.549 40.3307 125.253 39.584C125.968 38.8373 126.827 38.2453 127.829 37.808C128.843 37.3707 129.984 37.152 131.253 37.152C132.352 37.152 133.355 37.3227 134.261 37.664C135.179 38.0053 135.963 38.5013 136.613 39.152C137.275 39.8027 137.787 40.6027 138.149 41.552C138.523 42.4907 138.709 43.5573 138.709 44.752C138.709 45.1253 138.693 45.4293 138.661 45.664C138.629 45.8987 138.571 46.0853 138.485 46.224C138.4 46.3627 138.283 46.4587 138.133 46.512C137.995 46.5653 137.813 46.592 137.589 46.592H128.021Z" fill="#F9F3E5"/>
</svg>
